<?xml version="1.0" encoding="utf-8"?>
<!-- Generator: Adobe Illustrator 24.0.1, SVG Export Plug-In . SVG Version: 6.00 Build 0)  -->
<svg version="1.1" id="Layer_1" xmlns="http://www.w3.org/2000/svg" xmlns:xlink="http://www.w3.org/1999/xlink" x="0px" y="0px"
	 viewBox="0 0 360 360" style="enable-background:new 0 0 360 360;" xml:space="preserve">
<style type="text/css">
	.st0{fill:#4E585A;}
	.st1{fill:#6EBE48;}
</style>
<polygon class="st0" points="96.1,124.12 51.6,148.99 51.6,170.97 96.1,145.93 121.14,159.82 116.15,162.62 96.1,151.47 
	78.66,161.22 118.52,183.54 140.61,171.03 140.61,148.99 "/>
<polygon class="st1" points="96.1,223.47 140.61,198.65 140.61,176.62 96.1,201.66 71.07,187.77 76.05,184.97 96.1,196.12 
	113.54,186.37 73.69,164.04 51.6,176.55 51.6,198.65 "/>
<g>
	<g>
		<path class="st0" d="M181.22,156.87c4.25-6.03,10.59-9.04,19.01-9.04c7.65,0,13.84,2.57,18.59,7.71
			c4.74,5.07,7.12,11.34,7.12,18.8c0,7.47-2.37,13.73-7.12,18.8c-4.75,5.14-11.12,7.71-19.12,7.71c-8,0-14.17-3.05-18.48-9.14v28.67
			h-7.97v-71.72h7.97V156.87z M199.17,154.81c-5.74,0-10.27,1.92-13.6,5.75c-3.19,3.63-4.78,8.22-4.78,13.77
			c0,5.55,1.59,10.14,4.78,13.77c3.33,3.84,7.86,5.75,13.6,5.75c5.66,0,10.27-1.92,13.81-5.75c3.33-3.63,4.99-8.22,4.99-13.77
			c0-5.55-1.67-10.14-4.99-13.77C209.44,156.73,204.84,154.81,199.17,154.81z"/>
		<path class="st0" d="M242.08,200.02v-44.59h-10.83v-6.78h10.83v-18.39h7.97v18.39h12.22v6.78h-12.22v44.59H242.08z"/>
	</g>
	<g>
		<path class="st0" d="M293.5,193.86c3.4,0,6.41-0.93,9.03-2.77c2.62-1.85,4.53-4.25,5.74-7.19h8.6c-1.63,5.07-4.6,9.14-8.92,12.23
			c-4.53,3.15-9.92,4.73-16.15,4.73c-7.79,0-14.13-2.57-19.01-7.71c-4.75-5-7.12-11.27-7.12-18.8c0-7.53,2.37-13.8,7.12-18.8
			c4.89-5.14,11.22-7.71,19.01-7.71c6.23,0,11.61,1.58,16.15,4.73c4.32,3.08,7.29,7.16,8.92,12.23h-8.6
			c-1.2-2.94-3.12-5.34-5.74-7.19c-2.62-1.85-5.63-2.77-9.03-2.77c-3.4,0-6.29,0.51-8.66,1.54c-2.37,1.03-4.37,2.43-6,4.21
			c-3.47,3.7-5.2,8.29-5.2,13.77c0,5.48,1.74,10.07,5.2,13.77C282.38,191.94,287.27,193.86,293.5,193.86z"/>
	</g>
</g>
</svg>
