<?xml version="1.0" encoding="UTF-8"?>
<svg width="176px" height="176px" viewBox="0 0 176 176" version="1.1" xmlns="http://www.w3.org/2000/svg" xmlns:xlink="http://www.w3.org/1999/xlink">
    <!-- Generator: Sketch 58 (84663) - https://sketch.com -->
    <title>Arvizio</title>
    <desc>Created with Sketch.</desc>
    <defs>
        <polygon id="path-1" points="0.0338823529 0.5597 20.0848941 0.5597 20.0848941 28.54006 0.0338823529 28.54006"></polygon>
    </defs>
    <g id="Logo-Crops" stroke="none" stroke-width="1" fill="none" fill-rule="evenodd">
        <g id="Logo-Crop" transform="translate(-2138.000000, -592.000000)">
            <g id="Arvisio" transform="translate(2138.000000, 592.000000)">
                <g id="Slice">
                    <g id="Logos-/-Arvizio" transform="translate(16.000000, 74.000000)">
                        <g id="Enterprise">
                            <g id="Arvizio-Logo_EPS">
                                <polyline id="Fill-1" fill="#005291" points="115.511718 21.57136 103.624659 21.57136 114.788894 7.95122 114.788894 5.75998 100.737882 5.75998 100.737882 7.8822 111.894776 7.8822 100.737882 21.6282 100.737882 23.69416 115.511718 23.69416 115.511718 21.57136"></polyline>
                                <polygon id="Fill-2" fill="#005291" points="94.7446588 23.69416 97.0187294 23.69416 97.0187294 5.75998 94.7446588 5.75998"></polygon>
                                <polygon id="Fill-3" fill="#005291" points="119.334212 23.69416 121.608282 23.69416 121.608282 5.75998 119.334212 5.75998"></polygon>
                                <path d="M61.4761412,14.79 C61.4761412,11.15456 64.6791529,7.95122 68.5016471,7.95122 L68.5016471,5.7913 C65.712,5.7913 63.1296,7.01568 61.4761412,8.95926 L61.4761412,5.75998 L59.2032,5.75998 L59.2032,23.69416 L61.4761412,23.69416 L61.4761412,14.79" id="Fill-4" fill="#005291"></path>
                                <polyline id="Fill-5" fill="#005291" points="82.8779294 23.69416 91.1158588 5.75998 88.7045647 5.75998 81.6536471 21.12882 74.6027294 5.75998 72.2281412 5.75998 80.4655059 23.69416 82.8779294 23.69416"></polyline>
                                <polyline id="Fill-6" fill="#005291" points="23.2043294 29 28.608 19.36504 12.3060706 29 23.2043294 29"></polyline>
                                <path d="M134.371765,7.90888 C138.287435,7.90888 141.459953,10.98404 141.459953,14.7784 C141.459953,18.57334 138.287435,21.64908 134.371765,21.64908 C130.456659,21.64908 127.283012,18.57334 127.283012,14.7784 C127.283012,10.98404 130.456659,7.90888 134.371765,7.90888 Z M134.371765,23.75158 C139.485176,23.75158 143.630118,19.7345 143.630118,14.7784 C143.630118,9.82288 139.485176,5.8058 134.371765,5.8058 C129.258353,5.8058 125.113976,9.82288 125.113976,14.7784 C125.113976,19.7345 129.258353,23.75158 134.371765,23.75158 L134.371765,23.75158 Z" id="Fill-7" fill="#005291"></path>
                                <polyline id="Fill-8" fill="#005291" points="19.5902118 21.1207 27.8840471 16.21912 23.7368471 13.64798 19.5902118 21.1207"></polyline>
                                <polyline id="Fill-9" fill="#005291" points="9.9456 10.10476 2.98785882 14.21754 7.06616471 16.62744 9.9456 10.10476"></polyline>
                                <g id="Group-13">
                                    <mask id="mask-2" fill="white">
                                        <use xlink:href="#path-1"></use>
                                    </mask>
                                    <g id="Clip-11"></g>
                                    <polyline id="Fill-10" fill="#005291" mask="url(#mask-2)" points="7.2768 0.5597 0.926682353 11.88246 20.0848941 0.5597 7.2768 0.5597"></polyline>
                                    <polyline id="Fill-12" fill="#005291" mask="url(#mask-2)" points="14.1323294 24.34666 0 15.99466 7.03623529 28.54006 14.1323294 24.34666"></polyline>
                                </g>
                                <polyline id="Fill-14" fill="#005291" points="30.8820706 14.4478 31.0401882 14.54118 30.9616941 14.40082 23.9198118 1.84672 16.7395765 6.09 30.8820706 14.4478"></polyline>
                                <path d="M46.2544941,7.95122 C50.1504,7.95122 53.3048471,11.01014 53.3048471,14.79 C53.3048471,18.7485 50.0385882,21.6282 46.2544941,21.6282 C42.3574588,21.6282 39.2035765,18.56928 39.2035765,14.79 C39.2035765,11.01014 42.3574588,7.95122 46.2544941,7.95122 Z M46.2528,23.78812 C49.0729412,23.78812 51.5576471,22.56374 53.3144471,20.65612 L53.3144471,23.69416 L55.4834824,23.69416 L55.4834824,14.79 C55.4834824,9.82288 51.3515294,5.7913 46.2302118,5.7913 C41.1094588,5.7913 36.9656471,9.82288 36.9656471,14.79 C36.9656471,19.75654 41.1320471,23.78812 46.2528,23.78812 L46.2528,23.78812 Z" id="Fill-15" fill="#005291"></path>
                            </g>
                        </g>
                    </g>
                </g>
            </g>
        </g>
    </g>
</svg>